<svg xmlns="http://www.w3.org/2000/svg" fill="#fecaca10" viewBox="-256 -256 1024 1024"><path d="M477.18 174.39a87.5 87.5 0 0 0 13.95-47.47c0-48.55-39.5-88.04-88.05-88.04a88.1 88.1 0 0 0-76.66 44.8A326 326 0 0 0 256 76.09c-24 0-47.62 2.55-70.43 7.58a88.1 88.1 0 0 0-76.65-44.8c-48.55 0-88.04 39.5-88.04 88.05a87.5 87.5 0 0 0 13.94 47.47C12 204.68 0 239.02 0 274.61c0 53.85 27.2 104.2 76.57 141.76 48.1 36.6 111.83 56.76 179.43 56.76s131.32-20.16 179.43-56.76C484.8 378.8 512 328.46 512 274.61c0-35.6-11.99-69.94-34.82-100.22m-74.1-104.17c31.26 0 56.7 25.44 56.7 56.7s-25.44 56.7-56.7 56.7-56.7-25.43-56.7-56.7 25.43-56.7 56.7-56.7m-294.16 0c31.27 0 56.7 25.44 56.7 56.7s-25.43 56.7-56.7 56.7-56.7-25.43-56.7-56.7 25.44-56.7 56.7-56.7m-52.3 127.49a87.6 87.6 0 0 0 52.3 17.26c48.55 0 88.05-39.5 88.05-88.04q0-6.85-1.02-13.41a296 296 0 0 1 60.05-6.08 296 296 0 0 1 60.05 6.07 88 88 0 0 0-1.02 13.42c0 48.55 39.5 88.05 88.05 88.05a87.6 87.6 0 0 0 52.29-17.27c15.16 21.64 23.71 45.42 25.08 69.91-23.82 20.08-49.4 34.13-79.95 43.95-38.2 12.28-85.47 18.25-144.5 18.25s-106.3-5.97-144.5-18.25c-30.55-9.83-56.13-23.87-79.95-43.95 1.37-24.5 9.92-48.28 25.08-69.91M256 441.78c-107.34 0-197.32-56.31-219.43-131.31 19.88 13.1 41.24 23.2 65.34 30.93 41.35 13.3 91.76 19.76 154.1 19.76 62.32 0 112.73-6.46 154.09-19.76 24.09-7.74 45.45-17.83 65.33-30.93-22.12 75-112.1 131.3-219.43 131.3"/><path d="M108.93 105.93c-11.45 0-20.74 9.4-20.74 21s9.3 21 20.74 21 20.73-9.4 20.73-21-9.3-21-20.73-21m294.15 0c-11.45 0-20.73 9.4-20.73 21s9.28 21 20.73 21c11.44 0 20.73-9.4 20.73-21s-9.29-21-20.73-21M219.85 256.62a17.9 17.9 0 0 0-17.75 17.99c0 9.94 7.96 18 17.75 18 9.8 0 17.77-8.06 17.77-18s-7.97-17.99-17.77-17.99m72.17-.14c-9.89 0-17.9 8.12-17.9 18.13s8.01 18.13 17.9 18.13c9.87 0 17.89-8.12 17.89-18.13s-8.02-18.13-17.9-18.13"/></svg>
