<svg xmlns="http://www.w3.org/2000/svg" fill="none" viewBox="-100 -100 300 300"><path stroke="#fecaca10" stroke-linejoin="round" stroke-width="6" d="M50.88 3.02a29.16 29.16 0 0 1 29.27 21.1 3 3 0 0 0 3.17 2.17c3.82-.37 7.63-.62 11.2-.74h.03c5.46-.25 11.27-.37 17.07-.25a3 3 0 0 0 2.78-1.73c3.92-8.4 12.76-15.05 23.66-16.3h.01c16.17-1.97 30.28 8.3 31.94 22.24a25 25 0 0 1-3.58 15.5 3 3 0 0 0 .29 3.52c14.85 17.29 23.96 39.93 24.93 61 1.3 30.74-19.14 51.72-49.04 62.1a3 3 0 0 0-1.93 2.12l-.05.2c-.82 4.83-3.72 10.28-7.37 14.74a34 34 0 0 1-5.53 5.47c-1.86 1.42-3.41 2.16-4.5 2.38-2.74.51-5.8-.5-8.66-3.15-2.85-2.65-5.28-6.8-6.47-11.86a3 3 0 0 0-2.94-2.31l-.28.01c-1.3.13-2.26.24-3.33.24h-.08c-4.45.12-8.78.12-13.23 0a3 3 0 0 0-2.95 2.12l-.07.26c-.96 4.59-3 8.4-5.49 10.91-2.48 2.53-5.23 3.62-7.78 3.36h-.04l-.22-.03c-1.1-.15-2.66-.74-4.54-1.91a34 34 0 0 1-6.06-5.02c-4.05-4.17-7.4-9.4-8.55-14.15a3 3 0 0 0-1.78-2.07l-.17-.07-1.26-.44c-25.86-9.13-44.39-26.9-46.19-53.5l-.07-1.3C2.1 95.13 11.64 70.93 27.4 52a3 3 0 0 0 .21-3.55 29.6 29.6 0 0 1-4.77-14.76v-.02A29.25 29.25 0 0 1 50.88 3.02Z"/><path fill="#fecaca10" d="M106.43 47.45h1.88c3.63-.25 6.75-1.5 9.13-3.88a3.17 3.17 0 0 0 0-4.5 3.17 3.17 0 0 0-4.5 0c-1.5 1.5-3.63 2.13-6.26 2-4.13-.25-8-2.25-8.89-3.38-.75-.87-1.75-1.37-2.87-1.12-1.13.12-2 .87-2.38 1.87-.5.75-3.88 2.76-7.76 3.13-1.88.13-4.25 0-5.88-1.75a3.14 3.14 0 0 0-4.38-.25 3.14 3.14 0 0 0-.25 4.38c3 3.25 7.63 4.5 13.14 3.5 2.88-.5 6.13-1.75 8.38-3.5a19.6 19.6 0 0 0 10.64 3.5M61.5 16.55c-6.12-2-14 2.62-15 10.38-1.26 9.01 8 14.4 15.13 9.26 3.88-2.75 5.63-7.38 5.5-11.51-.37-3.63-2.12-6.88-5.62-8.13m71.19 20.89c7.76 4.26 16.27-2.13 13.9-11.01-2-7.63-10.4-11.26-16.27-8.5-3.38 1.62-4.76 5-4.5 8.75.24 4 2.75 8.5 6.88 10.76M57.25 74.48a3.14 3.14 0 0 0-4.38.25 3.14 3.14 0 0 0 .25 4.38c3.63 3.25 9.51 10.01 9.64 14.26 0 1-.38 1.76-1.13 2.5-1 .88-2 1.26-3.25 1.26-3.63-.25-8.63-3.88-14.77-10.89l-.12-.12a3.14 3.14 0 0 0-4.38-.25 3.14 3.14 0 0 0-.25 4.38l.12.12c3 3.5 11.02 12.64 19.15 13.01h1.25c2.5-.12 4.76-1.12 6.63-2.87a9.3 9.3 0 0 0 3.13-7.26c-.25-8.38-10.64-17.77-11.89-18.77m80.32 0a3.14 3.14 0 0 1 4.37.25 3.14 3.14 0 0 1-.25 4.38c-3.62 3.25-9.5 10.01-9.63 14.26 0 1 .37 1.76 1.13 2.5 1 .88 2 1.26 3.25 1.26 3.63-.25 8.63-3.88 14.76-10.89l.13-.12a3.14 3.14 0 0 1 4.38-.25 3.14 3.14 0 0 1 .25 4.38l-.13.12c-3 3.5-11 12.64-19.14 13.01h-1.25a10.3 10.3 0 0 1-6.63-2.87 9.3 9.3 0 0 1-3.13-7.26c.25-8.38 10.63-17.77 11.88-18.77"/><path fill="#fecaca10" d="M52.25 44.45c-6.38-.13-11.64 2.88-11.64 6.5s5.13 6.76 11.51 6.89 11.64-2.88 11.64-6.5c0-3.64-5-6.9-11.51-6.9m87.84-1.37c-6.38-.12-11.64 2.88-11.64 6.5 0 3.76 5.13 6.77 11.51 6.9 6.38.12 11.64-2.89 11.64-6.52 0-3.75-5.13-6.88-11.51-6.88" opacity=".2"/></svg>
